<?xml version="1.0" standalone="no"?>
<!DOCTYPE svg PUBLIC "-//W3C//DTD SVG 20010904//EN"
 "http://www.w3.org/TR/2001/REC-SVG-20010904/DTD/svg10.dtd">
<svg version="1.0" xmlns="http://www.w3.org/2000/svg"
 width="512.000000pt" height="512.000000pt" viewBox="0 0 512.000000 512.000000"
 preserveAspectRatio="xMidYMid meet">

<g transform="translate(0.000000,512.000000) scale(0.100000,-0.100000)"
fill="#000000" stroke="none">
<path d="M1110 3980 l0 -30 -125 0 -125 0 0 -85 0 -85 45 0 45 0 0 -525 0
-525 -140 0 -140 0 -160 -140 -160 -141 0 -125 0 -126 23 8 c12 5 576 10 1254
11 1378 4 1310 7 1461 -67 152 -75 274 -231 312 -398 16 -68 15 -198 0 -265
-14 -57 -56 -154 -90 -204 l-22 -33 191 0 191 0 0 55 0 55 329 0 330 0 3 -52
3 -52 215 -43 c118 -24 292 -58 386 -76 l172 -33 -67 82 c-222 275 -350 648
-382 1117 -6 89 -12 164 -14 166 -2 2 -74 -54 -159 -123 l-156 -127 0 -74 c0
-41 -3 -75 -6 -75 -6 0 -470 285 -491 302 -8 7 -20 -3 -38 -32 -14 -23 -28
-47 -31 -53 -2 -7 71 -58 171 -120 l175 -109 0 -259 0 -259 -220 0 -220 0 0
35 c0 35 0 35 45 35 l45 0 -2 248 -3 247 -42 3 -42 3 -3 47 -3 47 -214 132
-215 133 -483 0 c-475 0 -483 0 -483 20 0 19 8 20 447 22 l446 3 -174 108
-174 107 -110 0 -110 0 -119 513 c-66 281 -121 518 -124 525 -3 9 16 12 77 12
l81 0 0 85 0 85 -165 0 -165 0 0 30 0 30 -535 0 -535 0 0 -30z m280 -540 l0
-340 -115 0 -115 0 0 340 0 340 115 0 115 0 0 -340z m956 -185 l121 -520 -150
-3 c-82 -1 -152 -1 -154 2 -2 2 2 31 10 65 10 41 23 69 41 86 30 28 33 51 10
76 -14 16 -14 18 5 29 40 21 17 90 -29 90 -29 0 -54 -43 -41 -69 6 -11 11 -23
11 -27 0 -3 -35 -4 -77 -2 -99 7 -176 36 -261 101 -56 42 -74 50 -108 49 -114
-1 -176 -96 -206 -314 -10 -73 -15 -88 -30 -88 -17 0 -18 28 -18 518 0 285 3
522 7 525 4 4 173 6 377 5 l371 -3 121 -520z m-456 -335 c49 -25 151 -50 208
-50 47 0 47 1 30 -82 l-12 -58 -159 0 c-146 0 -158 1 -153 18 2 9 10 56 17
105 7 48 16 87 21 87 5 0 26 -9 48 -20z m-1072 -447 l-3 -138 -32 -3 -33 -3 0
140 0 141 35 0 36 0 -3 -137z m150 0 l-3 -138 -32 -3 -33 -3 0 140 0 141 35 0
36 0 -3 -137z m150 0 l-3 -138 -32 -3 -33 -3 0 140 0 141 35 0 36 0 -3 -137z
m150 0 l-3 -138 -32 -3 -33 -3 0 140 0 141 35 0 36 0 -3 -137z m2920 -376 c4
-20 -25 -34 -40 -19 -15 15 -1 44 19 40 10 -2 19 -11 21 -21z m87 -142 l55
-35 0 -190 0 -190 -60 0 -60 0 0 225 c0 124 2 225 5 225 3 0 30 -16 60 -35z
m-687 -461 c12 -8 22 -25 22 -36 0 -27 -28 -58 -52 -58 -22 0 -58 34 -58 55 0
18 35 55 53 55 7 0 23 -7 35 -16z m600 -40 c3 -22 -21 -39 -39 -28 -11 6 -12
38 -2 48 13 13 38 1 41 -20z"/>
<path d="M1805 3486 c-42 -18 -82 -68 -95 -117 -39 -145 124 -270 255 -196 46
26 82 75 91 124 13 67 -32 155 -97 188 -35 18 -114 19 -154 1z"/>
<path d="M3050 3196 l0 -215 68 -41 c38 -22 71 -40 75 -40 4 0 6 114 5 253
l-3 252 -72 3 -73 3 0 -215z"/>
<path d="M2857 2917 c-26 -40 -49 -80 -52 -88 -3 -10 123 -93 430 -282 239
-148 439 -266 444 -263 11 7 101 153 101 164 0 7 -836 527 -864 538 -8 3 -31
-24 -59 -69z"/>
<path d="M433 2121 c-54 -9 -59 -14 -46 -55 l10 -33 -49 -16 -49 -15 -16 26
c-9 15 -18 29 -19 31 -4 5 -70 -37 -84 -54 -11 -13 -9 -20 10 -40 l22 -24 -31
-33 c-17 -18 -31 -37 -31 -41 0 -5 -15 1 -34 12 l-34 21 -26 -52 -27 -53 33
-13 c43 -18 41 -13 33 -66 l-7 -46 -44 0 -44 0 0 -55 0 -55 44 0 c41 0 44 -2
50 -31 11 -54 7 -66 -24 -79 -37 -15 -37 -21 -4 -77 l25 -44 28 20 28 20 35
-37 35 -37 -21 -28 -21 -29 30 -24 c53 -43 81 -40 98 9 2 7 19 6 50 -2 47 -14
47 -14 45 -54 l-3 -41 49 -8 c28 -4 53 -5 58 -2 4 3 8 25 8 50 l0 44 55 0 55
0 0 -50 0 -50 55 0 55 0 0 50 0 50 55 0 55 0 0 -50 0 -50 55 0 55 0 0 50 0 50
55 0 55 0 0 -50 0 -50 55 0 55 0 0 50 0 50 55 0 55 0 0 -50 0 -50 54 0 55 0 3
48 3 47 52 3 52 3 3 -48 3 -48 52 -3 52 -3 3 48 3 48 52 3 52 3 3 -48 3 -48
52 -3 52 -3 3 48 3 48 52 3 52 3 3 -48 3 -48 52 -3 52 -3 3 48 3 48 55 0 55 0
3 -48 3 -48 52 3 52 3 3 48 3 48 52 -3 52 -3 3 -48 3 -48 52 3 52 3 3 48 3 48
52 -3 52 -3 3 -48 3 -48 52 3 52 3 3 48 3 48 52 -3 52 -3 3 -48 c3 -43 5 -47
25 -43 12 3 39 8 60 11 29 5 37 10 33 22 -21 55 -19 60 31 76 36 12 50 13 55
4 30 -52 32 -53 81 -17 l46 32 -21 29 -21 28 33 40 32 41 28 -20 28 -20 20 32
c37 62 37 75 -3 89 -29 11 -35 17 -31 34 3 11 6 32 6 48 0 25 3 27 45 27 l45
0 0 59 0 59 -45 -6 c-40 -4 -45 -2 -45 15 0 11 -3 34 -6 50 -5 27 -3 31 30 45
l37 14 -27 49 c-14 28 -27 52 -29 54 -2 2 -17 -6 -33 -18 l-29 -20 -32 39 -32
40 21 27 20 26 -47 34 c-43 30 -49 32 -58 18 -29 -47 -28 -47 -78 -35 l-47 12
6 39 c7 43 6 44 -63 53 l-42 6 -3 -47 -3 -48 -52 -3 -52 -3 -3 48 -3 48 -52 3
-52 3 -3 -48 -3 -48 -55 0 -55 0 -3 48 -3 48 -52 -3 -52 -3 -3 -48 -3 -48 -52
3 -52 3 -3 48 -3 48 -52 -3 -52 -3 -3 -48 -3 -48 -52 3 -52 3 -3 48 -3 48 -52
-3 -52 -3 -3 -47 -3 -48 -55 0 -54 0 0 50 0 50 -55 0 -55 0 0 -50 0 -50 -55 0
-55 0 0 50 0 50 -55 0 -55 0 0 -50 0 -50 -55 0 -55 0 0 50 0 50 -55 0 -55 0 0
-50 0 -50 -55 0 -55 0 0 50 0 50 -55 0 -55 0 0 -50 0 -50 -55 0 -55 0 0 50 0
50 -55 0 -55 0 0 -50 0 -50 -54 0 -55 0 -3 48 -3 47 -52 3 -52 3 -3 -48 -3
-48 -52 -3 -52 -3 -3 47 c-3 53 -5 54 -65 45z m164 -298 c47 -22 102 -82 115
-125 l11 -38 938 0 937 0 12 36 c28 85 116 146 210 146 102 0 187 -62 215
-155 19 -63 19 -71 0 -134 -49 -165 -267 -211 -382 -79 -17 19 -36 50 -43 70
l-12 36 -937 0 -938 0 -11 -37 c-14 -45 -68 -104 -118 -128 -50 -24 -141 -22
-190 3 -80 41 -124 113 -124 202 0 166 166 272 317 203z"/>
<path d="M480 1703 c-81 -30 -79 -137 3 -166 10 -4 33 -1 51 7 70 29 69 123 0
152 -19 8 -35 14 -36 13 -2 0 -10 -3 -18 -6z"/>
<path d="M2800 1703 c-81 -30 -79 -137 3 -166 10 -4 33 -1 51 7 70 29 69 123
0 152 -19 8 -35 14 -36 13 -2 0 -10 -3 -18 -6z"/>
</g>
</svg>
