<?xml version="1.0" standalone="no"?>
<!DOCTYPE svg PUBLIC "-//W3C//DTD SVG 20010904//EN"
 "http://www.w3.org/TR/2001/REC-SVG-20010904/DTD/svg10.dtd">
<svg version="1.0" xmlns="http://www.w3.org/2000/svg"
 width="512.000000pt" height="512.000000pt" viewBox="0 0 512.000000 512.000000"
 preserveAspectRatio="xMidYMid meet">

<g transform="translate(0.000000,512.000000) scale(0.100000,-0.100000)"
fill="#000000" stroke="none">
<path d="M2965 4036 c-121 -30 -221 -109 -276 -217 -147 -291 71 -624 398
-607 39 2 75 7 79 10 4 4 -3 40 -14 80 -33 113 -44 198 -40 305 2 70 8 105 19
121 16 22 16 19 11 -46 -16 -232 227 -680 353 -648 58 15 60 169 5 321 -20 54
-32 106 -31 130 9 223 7 247 -25 315 -90 188 -285 284 -479 236z"/>
<path d="M1935 3766 c-251 -65 -437 -148 -644 -286 -223 -149 -292 -223 -327
-349 -29 -104 2 -212 107 -373 59 -89 104 -124 180 -139 47 -9 97 -4 382 39
220 32 330 45 333 38 2 -6 58 -207 124 -446 66 -239 123 -443 126 -454 10 -32
77 -98 119 -117 24 -11 64 -19 98 -19 154 0 261 138 223 290 -38 157 -110 406
-120 416 -6 6 -48 26 -93 44 -134 52 -134 53 -232 400 -45 162 -87 313 -93
335 -6 22 -14 43 -17 47 -3 3 -198 -22 -433 -56 -270 -39 -428 -58 -428 -52 1
31 33 38 429 95 227 33 415 61 416 63 2 2 -5 35 -16 73 -22 80 -23 96 -8 148
24 88 137 152 224 128 91 -25 129 -74 165 -211 13 -47 24 -87 26 -89 9 -10 49
38 70 84 67 141 -9 301 -182 386 -65 32 -75 34 -184 36 -102 2 -129 -1 -245
-31z"/>
<path d="M2166 3531 c-43 -29 -68 -74 -68 -123 0 -49 223 -848 247 -884 8 -13
26 -31 39 -40 45 -29 891 -366 931 -371 77 -8 155 61 155 139 0 45 -20 96 -46
120 -11 9 -199 90 -419 178 -220 89 -403 165 -408 169 -4 4 -55 176 -112 382
-99 349 -108 376 -140 408 -29 30 -42 35 -92 38 -45 3 -64 0 -87 -16z"/>
<path d="M3672 2818 c-21 -21 -24 -22 -94 -9 -140 25 -151 25 -172 2 -22 -24
-25 -18 64 -114 33 -37 34 -39 16 -52 -26 -19 -177 -167 -174 -170 2 -1 31
-15 66 -30 l62 -28 78 71 79 71 61 -62 61 -61 69 64 c38 36 70 69 71 75 0 5
-25 35 -56 67 -55 56 -56 58 -39 77 17 19 17 21 -2 48 -11 15 -31 38 -44 50
l-24 23 -22 -22z"/>
<path d="M1515 2599 c-104 -16 -211 -28 -237 -27 -29 2 -44 -1 -40 -7 3 -5 39
-54 80 -108 41 -55 70 -102 66 -107 -5 -4 -162 -63 -349 -130 -187 -67 -356
-130 -375 -140 -46 -24 -74 -55 -99 -110 -69 -151 43 -323 209 -323 47 -1 135
28 575 187 286 104 531 194 545 201 89 47 140 177 107 272 -8 24 -61 105 -118
182 -122 165 -82 153 -364 110z"/>
<path d="M2958 2153 l-27 -28 45 -48 c51 -54 55 -53 118 12 l39 40 -49 21
c-80 35 -96 35 -126 3z"/>
<path d="M4030 1667 c-195 -28 -357 -52 -359 -53 -5 -4 36 -284 42 -290 6 -6
766 102 774 110 3 3 -3 68 -13 143 l-19 138 -35 2 c-19 0 -195 -22 -390 -50z"/>
<path d="M0 1390 l0 -150 395 0 395 0 0 150 0 150 -395 0 -395 0 0 -150z"/>
<path d="M922 1393 l3 -148 398 -3 397 -2 0 150 0 150 -400 0 -401 0 3 -147z"/>
<path d="M1850 1390 l0 -150 395 0 395 0 0 150 0 150 -395 0 -395 0 0 -150z"/>
<path d="M2772 1393 l3 -148 398 -3 397 -2 0 150 0 150 -400 0 -401 0 3 -147z"/>
<path d="M0 1105 l0 -45 2560 0 2560 0 0 45 0 45 -2560 0 -2560 0 0 -45z"/>
</g>
</svg>
