<?xml version="1.0" standalone="no"?>
<!DOCTYPE svg PUBLIC "-//W3C//DTD SVG 20010904//EN"
 "http://www.w3.org/TR/2001/REC-SVG-20010904/DTD/svg10.dtd">
<svg version="1.0" xmlns="http://www.w3.org/2000/svg"
 width="512.000000pt" height="512.000000pt" viewBox="0 0 512.000000 512.000000"
 preserveAspectRatio="xMidYMid meet">

<g transform="translate(0.000000,512.000000) scale(0.100000,-0.100000)"
fill="#000000" stroke="none">
<path d="M1570 5097 c0 -7 -311 -167 -704 -360 l-703 -347 -82 0 -81 0 0 -105
0 -105 55 0 55 0 0 -65 0 -65 490 0 490 0 0 -145 0 -145 165 0 165 0 0 -225
c0 -218 1 -225 20 -225 19 0 20 -7 20 -245 l0 -245 -90 0 -90 0 0 -35 0 -35
90 0 90 0 0 -215 0 -215 -90 0 -90 0 0 -35 0 -35 90 0 90 0 0 -1000 0 -1000
-110 0 -110 0 0 -55 0 -55 -110 0 -110 0 0 -65 0 -65 593 2 592 3 0 60 0 60
-112 3 -113 3 0 54 0 55 -110 0 -110 0 0 1000 0 1000 90 0 90 0 0 35 0 35 -90
0 -90 0 0 215 0 215 90 0 90 0 0 35 0 35 -90 0 -90 0 0 245 c0 238 1 245 20
245 19 0 20 8 22 223 l3 222 163 3 162 2 0 140 0 140 1075 0 1075 0 0 -35 0
-35 70 0 70 0 0 -155 c0 -133 -2 -155 -15 -155 -17 0 -17 -7 11 -143 8 -38 14
-70 14 -73 0 -2 9 -4 20 -4 13 0 20 -7 20 -19 0 -10 11 -26 25 -35 34 -22 34
-56 0 -56 -17 0 -29 8 -37 25 -16 35 -39 33 -28 -2 19 -65 36 -83 78 -83 33 0
72 38 72 71 0 28 -40 79 -61 79 -5 0 -9 5 -9 10 0 6 10 10 23 10 22 0 25 7 43
110 20 106 20 110 2 110 -17 0 -18 12 -18 155 l0 155 70 0 70 0 0 35 0 35 205
0 c113 0 205 3 205 8 0 4 -64 71 -143 150 l-142 142 -551 0 -551 0 -149 54
c-187 69 -1556 564 -1764 639 -85 31 -156 61 -158 67 -5 15 -82 13 -82 -3z
m50 -21 c0 -2 14 -76 30 -164 17 -89 30 -163 30 -166 0 -3 -32 -6 -71 -6 -69
0 -71 1 -66 23 8 30 57 298 57 309 0 4 5 8 10 8 6 0 10 -2 10 -4z m1043 -371
l994 -360 -864 -3 -863 -2 0 -135 0 -135 -35 0 -35 0 0 59 c0 54 -2 60 -22 63
-21 3 -25 17 -59 203 -21 110 -57 307 -82 438 -24 131 -40 236 -36 235 4 -2
455 -165 1002 -363z m-1173 -57 c-39 -211 -73 -395 -76 -410 l-6 -28 -124 0
-124 0 0 35 0 35 -270 0 -270 0 0 -35 0 -35 -121 0 -120 0 3 40 3 40 585 379
c322 208 586 374 588 370 2 -4 -29 -180 -68 -391z m-52 347 c-3 -3 -241 -158
-529 -344 l-524 -339 -3 39 -3 39 -86 0 -87 0 615 304 c338 168 616 305 618
305 2 1 2 -1 -1 -4z m212 -335 c-17 -22 -35 -40 -39 -40 -4 0 -22 18 -40 40
l-32 40 71 0 72 0 -32 -40z m-98 -122 c-54 -70 -67 -80 -59 -47 3 13 11 53 17
89 18 108 17 106 55 59 l33 -43 -46 -58z m161 36 c10 -53 16 -98 14 -100 -2
-2 -26 24 -54 59 l-50 63 29 37 c17 20 33 37 37 37 4 0 15 -43 24 -96z m-48
-132 c-30 -2 -79 -2 -109 0 l-55 3 55 68 56 68 54 -68 54 -68 -55 -3z m8 -77
c-29 -19 -57 -35 -63 -35 -11 0 -100 60 -100 67 0 2 48 3 107 3 l108 0 -52
-35z m-137 -12 c29 -21 54 -40 54 -43 -1 -7 -141 -103 -144 -99 -5 5 26 179
32 179 2 0 28 -17 58 -37z m227 -50 c9 -48 15 -89 12 -91 -2 -2 -21 9 -42 24
-21 15 -53 39 -71 52 l-33 24 53 38 c29 21 56 39 59 39 4 1 14 -38 22 -86z
m407 -1 c0 -4 -20 -28 -45 -52 l-45 -44 -53 52 -52 52 98 0 c53 0 97 -4 97 -8z
m260 0 c0 -4 -20 -28 -45 -52 l-45 -44 -53 52 -52 52 98 0 c53 0 97 -4 97 -8z
m260 0 c0 -4 -20 -28 -45 -52 l-45 -44 -53 52 -52 52 98 0 c53 0 97 -4 97 -8z
m260 0 c0 -4 -20 -28 -45 -52 l-45 -44 -53 52 -52 52 98 0 c53 0 97 -4 97 -8z
m260 0 c0 -4 -20 -28 -45 -52 l-45 -44 -45 44 c-25 24 -45 48 -45 52 0 4 41 8
90 8 50 0 90 -4 90 -8z m223 -44 l-53 -52 -45 44 c-25 24 -45 48 -45 52 0 4
44 8 97 8 l98 0 -52 -52z m260 0 l-53 -52 -45 44 c-25 24 -45 48 -45 52 0 4
44 8 97 8 l98 0 -52 -52z m260 0 l-53 -52 -45 44 c-25 24 -45 48 -45 52 0 4
44 8 97 8 l98 0 -52 -52z m307 45 c0 -11 -83 -93 -94 -93 -12 0 -96 81 -96 92
0 4 43 8 95 8 52 0 95 -3 95 -7z m260 -1 c0 -4 -20 -28 -45 -52 l-45 -44 -53
52 -52 52 98 0 c53 0 97 -4 97 -8z m260 0 c0 -5 -11 -19 -25 -32 l-25 -23 -51
23 c-28 13 -53 28 -55 32 -3 4 31 8 75 8 45 0 81 -4 81 -8z m-3094 -54 l75
-53 -75 -3 c-42 -2 -109 -2 -150 0 l-75 3 72 52 c40 28 73 52 75 52 1 1 36
-23 78 -51z m3224 -44 l95 -96 -125 62 c-69 34 -127 64 -129 66 -5 5 50 64 59
64 3 0 48 -43 100 -96z m-2890 -59 c-24 -25 -48 -45 -52 -45 -4 0 -8 44 -8 97
l0 98 52 -52 52 -53 -44 -45z m170 48 l0 -97 -50 49 -50 49 47 48 c26 26 49
48 50 48 2 0 3 -44 3 -97z m90 -48 c-24 -25 -48 -45 -52 -45 -4 0 -8 44 -8 97
l0 98 52 -52 52 -53 -44 -45z m170 48 l0 -97 -50 49 -50 49 47 48 c26 26 49
48 50 48 2 0 3 -44 3 -97z m90 -48 c-24 -25 -48 -45 -52 -45 -4 0 -8 44 -8 97
l0 98 52 -52 52 -53 -44 -45z m170 48 l0 -97 -50 49 -50 49 47 48 c26 26 49
48 50 48 2 0 3 -44 3 -97z m90 -48 c-24 -25 -48 -45 -52 -45 -4 0 -8 44 -8 97
l0 98 52 -52 52 -53 -44 -45z m560 48 c0 -5 -20 -29 -45 -53 l-45 -44 0 99 0
98 45 -45 c25 -25 45 -50 45 -55z m135 -91 c-3 -3 -27 15 -53 41 l-46 47 49
50 50 51 3 -92 c1 -50 0 -94 -3 -97z m88 140 l47 -48 -50 -49 -50 -49 0 97 c0
53 1 97 3 97 1 0 24 -22 50 -48z m172 -140 c-3 -3 -27 15 -53 41 l-46 47 49
50 50 51 3 -92 c1 -50 0 -94 -3 -97z m88 140 l47 -48 -50 -49 -50 -49 0 97 c0
53 1 97 3 97 1 0 24 -22 50 -48z m172 -140 c-3 -3 -27 15 -53 41 l-46 47 49
50 50 51 3 -92 c1 -50 0 -94 -3 -97z m95 43 c-24 -25 -48 -45 -52 -45 -4 0 -8
44 -8 97 l0 98 52 -52 52 -53 -44 -45z m165 -43 c-3 -3 -27 15 -53 41 l-46 47
49 50 50 51 3 -92 c1 -50 0 -94 -3 -97z m120 68 c-11 -12 -31 -20 -52 -20
l-33 0 0 72 0 73 52 -52 c51 -51 52 -52 33 -73z m145 50 c0 -69 0 -70 -27 -70
-15 0 -37 10 -50 22 l-23 22 47 48 c26 26 49 48 50 48 2 0 3 -31 3 -70z m115
-50 c-11 -12 -31 -20 -52 -20 l-33 0 0 72 0 73 52 -52 c51 -51 52 -52 33 -73z
m-1685 18 l0 -93 -47 47 -47 48 44 45 c24 25 45 45 47 45 2 0 3 -42 3 -92z
m87 -45 l-47 -48 0 95 0 95 47 -48 48 -47 -48 -47z m173 45 l0 -93 -47 47 -47
48 44 45 c24 25 45 45 47 45 2 0 3 -42 3 -92z m1480 41 c0 -24 -27 -17 -59 15
l-36 37 48 -22 c26 -13 47 -26 47 -30z m170 -79 l135 -69 -100 0 -101 -1 -57
58 c-45 45 -55 60 -45 70 7 7 17 12 23 11 5 0 71 -31 145 -69z m-2755 -20 l49
-50 -99 0 -99 0 49 50 c27 28 50 50 50 50 0 0 23 -22 50 -50z m260 0 l49 -50
-99 0 -99 0 49 50 c27 28 50 50 50 50 0 0 23 -22 50 -50z m260 0 l49 -50 -99
0 -99 0 49 50 c27 28 50 50 50 50 0 0 23 -22 50 -50z m1050 0 l49 -50 -99 0
-99 0 49 50 c27 28 50 50 50 50 0 0 23 -22 50 -50z m260 0 l49 -50 -99 0 -99
0 49 50 c27 28 50 50 50 50 0 0 23 -22 50 -50z m260 0 l49 -50 -99 0 -99 0 49
50 c27 28 50 50 50 50 0 0 23 -22 50 -50z m225 35 c11 -13 8 -15 -15 -15 -23
0 -26 2 -15 15 7 8 14 15 15 15 1 0 8 -7 15 -15z m295 -35 l49 -50 -42 0 c-41
0 -42 1 -42 35 0 29 -4 35 -21 35 -18 0 -19 2 -9 15 7 8 13 15 14 15 1 0 24
-22 51 -50z m-3370 0 l0 -35 -492 -3 -493 -2 0 40 0 40 493 -2 492 -3 0 -35z
m1545 -5 l44 -45 -94 0 -94 0 44 45 c24 25 47 45 50 45 3 0 26 -20 50 -45z
m260 0 l44 -45 -94 0 -94 0 44 45 c24 25 47 45 50 45 3 0 26 -20 50 -45z m247
18 c66 -62 66 -63 -38 -63 l-93 0 44 45 c24 25 47 45 51 45 3 0 20 -12 36 -27z
m988 -73 c8 -27 -12 -52 -39 -48 -21 3 -32 28 -22 54 8 22 54 18 61 -6z m240
0 c8 -27 -12 -52 -39 -48 -21 3 -32 28 -22 54 8 22 54 18 61 -6z m-3245 -65
c0 -13 -21 -15 -130 -15 -109 0 -130 2 -130 15 0 13 21 15 130 15 109 0 130
-2 130 -15z m118 -2 c2 -9 -9 -13 -37 -13 -30 0 -41 4 -41 16 0 11 9 14 37 12
20 -2 38 -9 41 -15z m542 -58 l0 -65 -30 0 c-22 0 -30 5 -30 17 0 13 3 14 12
5 7 -7 16 -12 21 -12 5 0 -1 9 -14 21 -17 14 -20 22 -11 25 14 6 17 44 3 44
-12 0 -41 -58 -41 -82 0 -16 -9 -18 -70 -18 l-70 0 0 65 0 65 115 0 115 0 0
-65z m2480 -130 l0 -155 -50 0 -50 0 0 155 0 155 50 0 50 0 0 -155z m-2878
-567 l-52 -53 -52 53 -53 52 105 0 105 0 -53 -52z m-109 -16 l47 -48 -50 -49
-50 -49 0 97 c0 53 1 97 3 97 1 0 24 -22 50 -48z m177 -47 c0 -52 -4 -95 -8
-95 -11 0 -92 84 -92 95 0 11 81 95 92 95 4 0 8 -43 8 -95z m-65 -65 l49 -50
-104 0 -104 0 49 50 c27 28 52 50 55 50 3 0 28 -22 55 -50z m-3 -132 l-52 -53
-52 53 -53 52 105 0 105 0 -53 -52z m-109 -16 l47 -48 -50 -49 -50 -49 0 97
c0 53 1 97 3 97 1 0 24 -22 50 -48z m177 -47 c0 -52 -4 -95 -8 -95 -11 0 -92
84 -92 95 0 11 81 95 92 95 4 0 8 -43 8 -95z m-70 -60 l44 -45 -94 0 -94 0 44
45 c24 25 47 45 50 45 3 0 26 -20 50 -45z m-93 -167 l33 -34 -50 -49 -50 -49
0 92 c0 104 3 106 67 40z m103 44 c0 -5 -13 -21 -30 -37 l-30 -29 -30 29 c-16
16 -30 32 -30 37 0 4 27 8 60 8 33 0 60 -4 60 -8z m60 -88 c0 -46 -4 -84 -8
-84 -4 0 -28 20 -52 45 l-44 45 44 45 c24 24 47 42 52 39 4 -3 8 -43 8 -90z
m-65 -54 l49 -50 -99 0 -99 0 49 50 c27 28 50 50 50 50 0 0 23 -22 50 -50z
m-2 -132 l-53 -52 -45 44 c-25 24 -45 48 -45 52 0 4 44 8 97 8 l98 0 -52 -52z
m57 -142 c-7 -7 -23 2 -52 32 l-42 42 49 50 50 51 3 -82 c2 -49 -1 -86 -8 -93z
m-165 34 c-21 -22 -43 -40 -47 -40 -4 0 -8 39 -8 87 l0 88 47 -47 47 -48 -39
-40z m90 -10 l29 -30 -64 0 -64 0 29 30 c16 17 32 30 35 30 3 0 19 -13 35 -30z
m12 -147 l-47 -48 -47 48 -48 47 95 0 95 0 -48 -47z m-110 -110 l-47 -48 0 95
0 95 47 -48 48 -47 -48 -47z m183 47 c0 -49 -4 -90 -8 -90 -4 0 -28 20 -52 45
l-44 45 44 45 c24 25 48 45 52 45 4 0 8 -40 8 -90z m-70 -65 l44 -45 -94 0
-94 0 44 45 c24 25 47 45 50 45 3 0 26 -20 50 -45z m-3 -132 l-47 -48 -47 48
-48 47 95 0 95 0 -48 -47z m-110 -110 l-47 -48 0 95 0 95 47 -48 48 -47 -48
-47z m183 47 c0 -49 -4 -90 -8 -90 -4 0 -28 20 -52 45 l-44 45 44 45 c24 25
48 45 52 45 4 0 8 -40 8 -90z m-72 -63 c23 -23 42 -46 42 -50 0 -4 -40 -7 -90
-7 -49 0 -90 3 -90 7 0 9 82 93 90 93 3 0 25 -19 48 -43z m-1 -134 l-47 -48
-47 48 -48 47 95 0 95 0 -48 -47z m-110 -110 l-47 -48 0 95 0 95 47 -48 48
-47 -48 -47z m183 40 l0 -98 -52 52 -52 53 44 45 c24 25 48 45 52 45 4 0 8
-44 8 -97z m-65 -63 l49 -50 -97 0 c-53 0 -97 3 -97 7 0 9 82 93 90 93 3 0 28
-22 55 -50z m45 -83 c0 -1 -22 -24 -48 -50 l-48 -47 -49 50 -49 50 97 0 c53 0
97 -1 97 -3z m-157 -65 l47 -48 -50 -49 -50 -49 0 97 c0 53 1 97 3 97 1 0 24
-22 50 -48z m177 -49 l0 -98 -52 52 -52 53 44 45 c24 25 48 45 52 45 4 0 8
-44 8 -97z m-65 -63 l49 -50 -97 0 c-53 0 -97 3 -97 7 0 9 82 93 90 93 3 0 28
-22 55 -50z m-3 -132 l-52 -53 -52 53 -53 52 105 0 105 0 -53 -52z m-109 -16
l47 -48 -50 -49 -50 -49 0 97 c0 53 1 97 3 97 1 0 24 -22 50 -48z m177 -47 c0
-52 -4 -95 -8 -95 -11 0 -92 84 -92 95 0 11 81 95 92 95 4 0 8 -43 8 -95z
m-65 -65 l49 -50 -104 0 -104 0 49 50 c27 28 52 50 55 50 3 0 28 -22 55 -50z
m-3 -132 l-52 -53 -52 53 -53 52 105 0 105 0 -53 -52z m-109 -16 l47 -48 -50
-49 -50 -49 0 97 c0 53 1 97 3 97 1 0 24 -22 50 -48z m177 -47 c0 -52 -4 -95
-8 -95 -11 0 -92 84 -92 95 0 11 81 95 92 95 4 0 8 -43 8 -95z m-65 -65 l49
-50 -104 0 -104 0 49 50 c27 28 52 50 55 50 3 0 28 -22 55 -50z m-3 -132 l-52
-53 -52 53 -53 52 105 0 105 0 -53 -52z m-109 -16 l47 -48 -50 -49 -50 -49 0
97 c0 53 1 97 3 97 1 0 24 -22 50 -48z m172 -140 c-3 -3 -27 15 -53 41 l-46
47 49 50 50 51 3 -92 c1 -50 0 -94 -3 -97z m-60 28 l49 -50 -99 0 -99 0 49 50
c27 28 50 50 50 50 0 0 23 -22 50 -50z m-2 -132 l-53 -52 -45 44 c-25 24 -45
48 -45 52 0 4 44 8 97 8 l98 0 -52 -52z m-73 -63 c0 -17 -54 -65 -73 -65 -15
0 -17 12 -17 82 l0 82 45 -44 c25 -24 45 -49 45 -55z m140 15 c0 -77 -1 -80
-23 -80 -13 0 -36 14 -52 30 l-29 30 49 50 c27 28 51 50 52 50 2 0 3 -36 3
-80z m-90 -55 l23 -25 -48 0 -48 0 23 25 c13 14 24 25 25 25 1 0 12 -11 25
-25z"/>
</g>
</svg>
