<?xml version="1.0" standalone="no"?>
<!DOCTYPE svg PUBLIC "-//W3C//DTD SVG 20010904//EN"
 "http://www.w3.org/TR/2001/REC-SVG-20010904/DTD/svg10.dtd">
<svg version="1.0" xmlns="http://www.w3.org/2000/svg"
 width="512.000000pt" height="512.000000pt" viewBox="0 0 512.000000 512.000000"
 preserveAspectRatio="xMidYMid meet">

<g transform="translate(0.000000,512.000000) scale(0.100000,-0.100000)"
fill="#000000" stroke="none">
<path d="M807 5003 c-3 -10 -16 -87 -28 -170 l-23 -153 -378 0 -378 0 0 -465
0 -465 305 0 305 0 -5 -22 c-5 -24 -85 -531 -85 -542 0 -3 -116 -7 -257 -8
l-258 -3 -3 -467 -2 -468 185 0 185 0 -6 -37 c-209 -1320 -320 -2028 -319
-2030 2 -5 527 -85 531 -81 2 3 78 477 169 1054 91 577 167 1059 170 1072 l5
22 1640 0 1640 0 5 -23 c3 -12 79 -494 170 -1071 91 -577 167 -1051 170 -1054
4 -4 527 75 530 81 1 2 -103 665 -319 2029 l-6 38 185 0 185 0 -2 468 -3 467
-257 3 c-142 1 -258 5 -258 8 0 11 -80 518 -85 542 l-5 22 305 0 305 0 0 465
0 465 -378 0 -378 0 -24 160 c-14 89 -27 165 -30 170 -3 5 -121 -9 -269 -33
l-263 -41 6 -46 c4 -25 12 -82 20 -127 l13 -83 -1257 0 -1257 0 13 83 c27 162
28 177 13 177 -12 0 -393 59 -486 75 -25 4 -33 2 -36 -12z m883 -479 c0 -6
-434 -580 -459 -607 -16 -16 -43 -17 -354 -15 l-338 3 238 313 237 312 338 0
c186 0 338 -3 338 -6z m1438 -6 c-2 -6 -107 -148 -234 -314 l-229 -303 -337
-1 c-186 0 -338 3 -338 7 0 7 316 427 417 556 l54 67 335 0 c251 0 335 -3 332
-12z m1442 2 c0 -5 -104 -147 -232 -315 l-231 -305 -339 0 c-186 0 -338 2
-338 5 0 3 106 145 236 315 l235 310 335 0 c215 0 334 -4 334 -10z m-563
-1040 c23 -146 42 -273 42 -282 1 -17 -76 -18 -1489 -18 -1031 0 -1490 3
-1490 10 0 17 80 533 85 548 4 10 290 12 1407 10 l1402 -3 43 -265z m-2324
-474 c-4 -7 -109 -146 -233 -309 l-225 -297 -343 0 -343 0 93 123 c52 67 158
206 237 310 l142 187 340 0 c283 0 339 -2 332 -14z m1447 8 c0 -3 -104 -142
-231 -310 l-232 -304 -339 0 c-187 0 -338 4 -336 8 2 5 106 144 232 310 l230
302 338 0 c186 0 338 -3 338 -6z m1431 -21 c-11 -16 -116 -154 -233 -308
l-214 -280 -343 -3 -343 -2 31 42 c17 23 122 162 234 310 l202 267 343 1 343
0 -20 -27z"/>
</g>
</svg>
